<svg class="animated" id="freepik_stories-leader" xmlns="http://www.w3.org/2000/svg" viewBox="0 0 500 500" version="1.1" xmlns:xlink="http://www.w3.org/1999/xlink" xmlns:svgjs="http://svgjs.com/svgjs"><style>svg#freepik_stories-leader:not(.animated) .animable {opacity: 0;}svg#freepik_stories-leader.animated #freepik--background-simple--inject-61 {animation: 3s Infinite  linear floating;animation-delay: 0s;}svg#freepik_stories-leader.animated #freepik--Shadow--inject-61 {animation: 3s Infinite  linear floating;animation-delay: 0s;}svg#freepik_stories-leader.animated #freepik--Arrows--inject-61 {animation: 3s Infinite  linear floating;animation-delay: 0s;}svg#freepik_stories-leader.animated #freepik--Rocks--inject-61 {animation: 3s Infinite  linear floating;animation-delay: 0s;}svg#freepik_stories-leader.animated #freepik--speech-bubble--inject-61 {animation: 3s Infinite  linear floating;animation-delay: 0s;}svg#freepik_stories-leader.animated #freepik--Character--inject-61 {animation: 3s Infinite  linear floating;animation-delay: 0s;}            @keyframes floating {                0% {                    opacity: 1;                    transform: translateY(0px);                }                50% {                    transform: translateY(-10px);                }                100% {                    opacity: 1;                    transform: translateY(0px);                }            }        </style><g id="freepik--background-simple--inject-61" class="animable" style="transform-origin: 241.439px 241.799px;"><path d="M241,117.09c-70.55,31.74-6.51,88.31-47.24,119.12s-151.5-4.8-109.28,75.21c49.6,94,266.79,80.93,313.61-34.35S311.59,85.34,241,117.09Z" style="fill: rgb(255, 181, 64); transform-origin: 241.439px 241.799px;" id="elmaub5yslh2b" class="animable"></path><g id="el77lujifp3zx"><path d="M241,117.09c-70.55,31.74-6.51,88.31-47.24,119.12s-151.5-4.8-109.28,75.21c49.6,94,266.79,80.93,313.61-34.35S311.59,85.34,241,117.09Z" style="fill: rgb(255, 255, 255); opacity: 0.9; transform-origin: 241.439px 241.799px;" class="animable"></path></g></g><g id="freepik--Shadow--inject-61" class="animable" style="transform-origin: 250px 416.24px;"><ellipse id="freepik--path--inject-61" cx="250" cy="416.24" rx="193.89" ry="11.32" style="fill: rgb(245, 245, 245); transform-origin: 250px 416.24px;" class="animable"></ellipse></g><g id="freepik--Arrows--inject-61" class="animable" style="transform-origin: 258.47px 272.885px;"><polygon points="407.97 208.26 383.99 209.74 390.2 213.24 258.43 280.87 223.11 267.91 116.23 321.3 108.97 324.93 117.38 329.67 126.19 325.27 223.6 276.61 258.95 289.59 398.57 217.94 403.55 220.74 407.97 208.26" style="fill: rgb(255, 181, 64); transform-origin: 258.47px 268.965px;" id="elyp5o00da6zm" class="animable"></polygon><polygon points="403.99 273.49 380 274.97 385.61 278.12 225.22 357.92 217.91 361.56 226.35 366.3 235.12 361.94 394.04 282.86 399.56 285.97 403.99 273.49" style="fill: rgb(255, 181, 64); transform-origin: 310.95px 319.895px;" id="elghg903ohup5" class="animable"></polygon><polygon points="305.44 179.47 281.46 180.95 287.07 184.1 126.67 263.9 119.36 267.54 127.8 272.28 136.57 267.92 295.49 188.84 301.02 191.95 305.44 179.47" style="fill: rgb(255, 181, 64); transform-origin: 212.4px 225.875px;" id="elkq2pdo7dq2h" class="animable"></polygon><g id="eloq9twmy01a9"><polygon points="407.97 208.26 383.99 209.74 390.2 213.24 258.43 280.87 223.11 267.91 116.23 321.3 108.97 324.93 117.38 329.67 126.19 325.27 223.6 276.61 258.95 289.59 398.57 217.94 403.55 220.74 407.97 208.26" style="fill: rgb(255, 255, 255); opacity: 0.3; transform-origin: 258.47px 268.965px;" class="animable"></polygon></g><g id="els0gfhhutwj"><polygon points="403.99 273.49 380 274.97 385.61 278.12 225.22 357.92 217.91 361.56 226.35 366.3 235.12 361.94 394.04 282.86 399.56 285.97 403.99 273.49" style="fill: rgb(255, 255, 255); opacity: 0.7; transform-origin: 310.95px 319.895px;" class="animable"></polygon></g><g id="el2vyggcql5hr"><polygon points="305.44 179.47 281.46 180.95 287.07 184.1 126.67 263.9 119.36 267.54 127.8 272.28 136.57 267.92 295.49 188.84 301.02 191.95 305.44 179.47" style="fill: rgb(255, 255, 255); opacity: 0.5; transform-origin: 212.4px 225.875px;" class="animable"></polygon></g></g><g id="freepik--Rocks--inject-61" class="animable" style="transform-origin: 242.075px 393.905px;"><polygon points="95.98 416.91 388.17 416.91 378.57 406.41 358.39 401.46 350.48 388.32 336.24 370.9 318.83 370.9 300.41 393.51 274.55 396.76 236.44 406.41 212.94 411.34 203.89 407.54 147.41 412.22 129.47 409.2 95.98 416.91" style="fill: rgb(38, 50, 56); transform-origin: 242.075px 393.905px;" id="elef3gpw620um" class="animable"></polygon><g id="elc7gt7kbo4b"><polygon points="95.98 416.91 388.17 416.91 378.57 406.41 358.39 401.46 350.48 388.32 336.24 370.9 318.83 370.9 300.41 393.51 274.55 396.76 236.44 406.41 212.94 411.34 203.89 407.54 147.41 412.22 129.47 409.2 95.98 416.91" style="fill: rgb(255, 255, 255); opacity: 0.7; transform-origin: 242.075px 393.905px;" class="animable"></polygon></g><g id="elhr6iyxnqc5u"><polygon points="129.47 409.2 124.54 414.21 144.58 416.24 149.86 414.21 191.26 414.21 202.34 408.11 213.75 412.42 211.75 415.26 265.99 412.42 262.21 403.94 274.55 396.76 288.79 401.42 292.54 407.41 299.92 410.78 300.41 393.51 318.83 370.9 322.53 380.98 334.74 377.75 322.53 391.01 314.43 394.19 312.06 409.41 332.63 402.4 351.35 406.56 358.39 401.46 354.78 409.41 337.11 412.42 331.22 416.91 95.98 416.91 129.47 409.2" style="opacity: 0.2; transform-origin: 227.185px 393.905px;" class="animable"></polygon></g></g><g id="freepik--speech-bubble--inject-61" class="animable" style="transform-origin: 280.74px 135.145px;"><polygon points="288.53 155.66 277.34 155.66 272.93 172.28 288.53 155.66" style="fill: rgb(255, 181, 64); transform-origin: 280.73px 163.97px;" id="elodom1ffziuq" class="animable"></polygon><g id="elfd7klb6rad5"><rect x="249.49" y="97.98" width="62.49" height="62.49" rx="10.75" style="fill: rgb(255, 181, 64); transform-origin: 280.735px 129.225px; transform: rotate(90deg);" class="animable"></rect></g><g id="elfhsvow4yovd"><path d="M301.23,98h-41a10.74,10.74,0,0,0-10.75,10.74v41a10.75,10.75,0,0,0,10.75,10.75h15.83l-3.14,11.82L284,160.46h17.21A10.75,10.75,0,0,0,312,149.71v-41A10.75,10.75,0,0,0,301.23,98Z" style="fill: rgb(255, 255, 255); opacity: 0.8; transform-origin: 280.74px 135.155px;" class="animable"></path></g><rect x="260.53" y="144.57" width="14.96" height="5.71" style="fill: rgb(38, 50, 56); transform-origin: 268.01px 147.425px;" id="el5feb1po9989" class="animable"></rect><g id="elc6366tje58d"><rect x="260.53" y="144.57" width="14.96" height="5.71" style="fill: rgb(255, 255, 255); opacity: 0.4; transform-origin: 268.01px 147.425px;" class="animable"></rect></g><g id="eldt9uw5yeyem"><polygon points="274.53 143.39 271.73 150.28 277.96 150.28 274.53 143.39" style="opacity: 0.2; transform-origin: 274.845px 146.835px;" class="animable"></polygon></g><rect x="286.67" y="141.61" width="14.27" height="8.68" style="fill: rgb(38, 50, 56); transform-origin: 293.805px 145.95px;" id="el5egfnnxj05t" class="animable"></rect><g id="elc9vhprqcz1m"><rect x="286.67" y="141.61" width="14.27" height="8.68" style="fill: rgb(255, 255, 255); opacity: 0.4; transform-origin: 293.805px 145.95px;" class="animable"></rect></g><g id="el89kjfcw0i8p"><polygon points="287.44 141.61 291.61 150.28 283.8 150.28 285.28 141.61 287.44 141.61" style="opacity: 0.2; transform-origin: 287.705px 145.945px;" class="animable"></polygon></g><polygon points="280.73 109.78 271.24 113.84 280.73 117.78 280.73 109.78" style="fill: rgb(255, 181, 64); transform-origin: 275.985px 113.78px;" id="el1l4v72jqlle" class="animable"></polygon><rect x="280.36" y="108.78" width="0.74" height="30.75" style="fill: rgb(38, 50, 56); transform-origin: 280.73px 124.155px;" id="ellft5wqsacjb" class="animable"></rect><g id="elzxx78x5kw2o"><rect x="280.36" y="108.78" width="0.74" height="30.75" style="fill: rgb(255, 255, 255); opacity: 0.2; transform-origin: 280.73px 124.155px;" class="animable"></rect></g><path d="M281.39,108.81a.66.66,0,1,1-.66-.66A.66.66,0,0,1,281.39,108.81Z" style="fill: rgb(38, 50, 56); transform-origin: 280.73px 108.81px;" id="elq34sbx2ksxe" class="animable"></path><rect x="274.02" y="136.86" width="13.43" height="13.43" style="fill: rgb(38, 50, 56); transform-origin: 280.735px 143.575px;" id="elbooujuide2u" class="animable"></rect><g id="elaonuebr0nhv"><rect x="274.02" y="136.86" width="13.43" height="13.43" style="fill: rgb(255, 255, 255); opacity: 0.4; transform-origin: 280.735px 143.575px;" class="animable"></rect></g></g><g id="freepik--Character--inject-61" class="animable" style="transform-origin: 227.955px 292.338px;"><path d="M272.18,210.77s18.54-1.1,22.59-2.24S317,198.61,317,198.61l2.59,5.25S299.77,216.55,295,218.17s-25.45,5.69-25.45,5.69Z" style="fill: rgb(38, 50, 56); transform-origin: 294.57px 211.235px;" id="el2grprj6yhnu" class="animable"></path><g id="el405arbcqfm9"><path d="M319.55,203.86S299.77,216.55,295,218.17c-3,1-12.49,3.06-19,4.39-3.72.76-6.46,1.3-6.46,1.3l1.77-8.85.84-4.24s18.54-1.1,22.59-2.24S317,198.61,317,198.61Z" style="fill: rgb(255, 255, 255); opacity: 0.4; transform-origin: 294.545px 211.235px;" class="animable"></path></g><g id="elfn4d7h0ogb6"><path d="M276,222.56c-3.72.76-6.46,1.3-6.46,1.3l2.22-5.91A8.16,8.16,0,0,1,276,222.56Z" style="opacity: 0.2; transform-origin: 272.77px 220.905px;" class="animable"></path></g><path d="M265.33,197.37c-2,3.25-6.72,5.19-8.88,7.17s-1.16,8.81-15.24,6.78-19.35.8-19.35.8-.79-3.06,5.4-5.59c0,0-4.78.93-6.15,3.42,0,0-.31-7.69,6-10s5.41-12.11,9.89-17.25,16.08-7.89,22.81-3.09S267.94,193.15,265.33,197.37Z" style="fill: rgb(38, 50, 56); transform-origin: 243.835px 194.62px;" id="el00pz57rriwka" class="animable"></path><path d="M221.11,273s34.79.23,42.05-3.36,6.37-39,6.37-39l-30.91,9.86S237.73,258.08,221.11,273Z" style="fill: rgb(38, 50, 56); transform-origin: 245.337px 251.821px;" id="el8kejo2gt6b3" class="animable"></path><g id="elm4mw6wc6lnn"><path d="M221.11,273s34.79.23,42.05-3.36,6.37-39,6.37-39l-30.91,9.86S237.73,258.08,221.11,273Z" style="fill: rgb(255, 255, 255); opacity: 0.1; transform-origin: 245.337px 251.821px;" class="animable"></path></g><path d="M244.22,213.33c3.45-.66,9.42-2,12.67-2s5.65,1.85,6.27,3.38-17.33,7.58-20.1,6.1S239.92,214.15,244.22,213.33Z" style="fill: rgb(38, 50, 56); transform-origin: 252.078px 216.186px;" id="elad047l5sf0m" class="animable"></path><g id="elkfxtsqn9jy9"><path d="M244.22,213.33c3.45-.66,9.42-2,12.67-2s5.65,1.85,6.27,3.38-17.33,7.58-20.1,6.1S239.92,214.15,244.22,213.33Z" style="fill: rgb(255, 255, 255); opacity: 0.1; transform-origin: 252.078px 216.186px;" class="animable"></path></g><path d="M195.17,412.05h1.43l.4-1.77,4.74,2.14h12s1.91-1.92-3.81-3.45a4.31,4.31,0,0,1-.81-.31c-3-1.43-7.39-6.26-7.39-6.26h-6.59a8.37,8.37,0,0,0-.54,1C193.89,404.8,192.64,407.85,195.17,412.05Z" style="fill: rgb(38, 50, 56); transform-origin: 203.852px 407.41px;" id="el48jax6oxwge" class="animable"></path><path d="M194.61,403.35v0c.87-1,4.83,3.29,7.73,4.74,2.59,1.29,5.5,1.86,6.79.55-3-1.43-7.85-7.67-7.85-7.67H196S194.92,402.73,194.61,403.35Z" style="fill: rgb(255, 194, 188); transform-origin: 201.87px 405.177px;" id="eliuqx5hdqfx" class="animable"></path><polyline points="200.72 403.94 211.75 380.36 202.21 377.75 195.58 401.01" style="fill: rgb(255, 194, 188); transform-origin: 203.665px 390.845px;" id="el3n2xwnves8t" class="animable"></polyline><path d="M204.7,399.11a26.88,26.88,0,0,1-4.91-.95,10.85,10.85,0,0,1-3.66-1.81c3.71-19.66,12.18-50.25,24.71-65.35,15.64-59.88,34.52-69.34,34.52-69.34l16.35,4.28s0,8.82-5.73,19.9c-6.73,13-19.81,32.71-29.13,49.09C226.07,353.88,214,376.25,204.7,399.11Z" style="fill: rgb(38, 50, 56); transform-origin: 233.92px 330.385px;" id="el43pj7o4ranu" class="animable"></path><g id="elpscixl1qs1o"><path d="M251.68,310.29c-5.07,8.24-10.38,16.81-14.83,24.64-10.77,18.95-22.8,41.31-32.14,64.17a27.24,27.24,0,0,1-4.91-.94,11,11,0,0,1-3.67-1.81c3.72-19.67,12.18-50.25,24.71-65.36,4.77-18.24,9.83-31.81,14.58-41.85A123.87,123.87,0,0,0,251.68,310.29Z" style="fill: rgb(255, 255, 255); opacity: 0.2; transform-origin: 223.905px 344.12px;" class="animable"></path></g><path d="M270.21,401.05h1.44l.39-1.76,4.74,2.14h12S290.7,399.5,285,398a4.31,4.31,0,0,1-.81-.31c-3.05-1.43-7.39-6.26-7.39-6.26h-6.59a8.37,8.37,0,0,0-.54,1C268.93,393.8,267.69,396.84,270.21,401.05Z" style="fill: rgb(38, 50, 56); transform-origin: 278.898px 396.43px;" id="elw0ae6vazzdr" class="animable"></path><path d="M269.65,392.35v0c.87-1,4.83,3.29,7.73,4.74,2.59,1.29,5.5,1.86,6.79.55-3.05-1.43-7.84-7.68-7.84-7.68H271S270,391.73,269.65,392.35Z" style="fill: rgb(255, 194, 188); transform-origin: 276.91px 394.172px;" id="ellzfr81w9g7g" class="animable"></path><polyline points="276.13 392.97 283.11 367.89 273.28 366.9 270.58 390.94" style="fill: rgb(255, 194, 188); transform-origin: 276.845px 379.935px;" id="eloftn0yqpidm" class="animable"></polyline><path d="M294.46,310.28C275.74,288.81,241.88,259,241.88,259h0a23.61,23.61,0,0,0,1.46,36.08,276.44,276.44,0,0,0,38.38,24.55c-8.16,24-10.9,49.89-11.19,66.57a13.7,13.7,0,0,0,4.15,1.31,13.15,13.15,0,0,0,5.26,0c4.73-19.55,12.17-44.82,16.88-63.45C298.45,317.88,298.17,313.88,294.46,310.28Z" style="fill: rgb(38, 50, 56); transform-origin: 265.985px 323.388px;" id="elv3hrkw6zi2p" class="animable"></path><g id="elexyzsfof0n9"><path d="M294.46,310.28C275.74,288.81,241.88,259,241.88,259h0a23.61,23.61,0,0,0,1.46,36.08,276.44,276.44,0,0,0,38.38,24.55c-8.16,24-10.9,49.89-11.19,66.57a13.7,13.7,0,0,0,4.15,1.31,13.15,13.15,0,0,0,5.26,0c4.73-19.55,12.17-44.82,16.88-63.45C298.45,317.88,298.17,313.88,294.46,310.28Z" style="fill: rgb(255, 255, 255); opacity: 0.2; transform-origin: 265.985px 323.388px;" class="animable"></path></g><path d="M317.64,198.67l5-6.06,3.94,6.46s-5.63,4.93-7.49,3.5Z" style="fill: rgb(238, 193, 187); transform-origin: 322.11px 197.72px;" id="el9jmmhdc2a5j" class="animable"></path><polygon points="329.72 192.39 331.3 197.59 326.62 199.07 322.68 192.61 329.72 192.39" style="fill: rgb(238, 193, 187); transform-origin: 326.99px 195.73px;" id="elpu504tt2lsg" class="animable"></polygon><polygon points="314.87 198.72 317.75 205.43 320.42 203.91 317.78 197.61 314.87 198.72" style="fill: rgb(255, 181, 64); transform-origin: 317.645px 201.52px;" id="el6ft4t8kg1eu" class="animable"></polygon><g id="els0l7k0yzx5"><polygon points="314.87 198.72 317.75 205.43 320.42 203.91 317.78 197.61 314.87 198.72" style="fill: rgb(255, 255, 255); opacity: 0.4; transform-origin: 317.645px 201.52px;" class="animable"></polygon></g><path d="M244.15,215.34s13.38,5.57,11.86-2.44c0,0,8.81-.82,15.77-1.58,0,0,1.89,18-.65,46.62l1.81,13.84L262.48,275,259,264.9l-4.18,10.57L233,268.63l6.6-13.3s-1.06-20.73-6.6-31.94C233,223.39,233.92,219.39,244.15,215.34Z" style="fill: rgb(255, 181, 64); transform-origin: 252.97px 243.395px;" id="el8azveyq19hb" class="animable"></path><path d="M245.25,200.11c1.22,4.52,2.72,12.79-.21,15.81,0,0-4.11,4,7.82,3.59,1,2.49,5.05,7,5.05,7s.78-7-.05-8.81c3.34-3.21-3.46-5.62-3.46-5.62s-.6-1.14,0-4.65Z" style="fill: rgb(238, 193, 187); transform-origin: 251.569px 213.31px;" id="elcrsgti755cv" class="animable"></path><g id="el27bsn3r5hym"><path d="M249,203.11l5.42,4.35a13.29,13.29,0,0,0-.24,2.49c-1.95-.27-4.75-2.39-5.1-4.4A6.66,6.66,0,0,1,249,203.11Z" style="opacity: 0.2; transform-origin: 251.672px 206.53px;" class="animable"></path></g><path d="M241.4,191c1.37,7.3,1.79,10.4,5.95,13.9,6.26,5.26,14.86,2.48,15.68-4.95.74-6.7-1.62-17.5-9.14-19.91A9.5,9.5,0,0,0,241.4,191Z" style="fill: rgb(238, 193, 187); transform-origin: 252.171px 193.548px;" id="elofffa2sdb9" class="animable"></path><path d="M247.67,185.78c-4,5.19,4.24,11.16-4,10.82s-4.91-12,0-14.68S247.67,185.78,247.67,185.78Z" style="fill: rgb(38, 50, 56); transform-origin: 243.199px 188.945px;" id="el6il008q3unu" class="animable"></path><path d="M253,192.26c.09.62.48,1.09.87,1.06s.65-.55.56-1.17-.48-1.09-.88-1.06S252.86,191.64,253,192.26Z" style="fill: rgb(38, 50, 56); transform-origin: 253.706px 192.205px;" id="eli4briz5dkr" class="animable"></path><path d="M260.4,191.82c.08.62.48,1.09.87,1.07s.65-.56.56-1.17-.48-1.1-.88-1.07S260.31,191.2,260.4,191.82Z" style="fill: rgb(38, 50, 56); transform-origin: 261.114px 191.77px;" id="el9u5pgtyh30d" class="animable"></path><path d="M260.78,190.7l1.39-.54S261.59,191.38,260.78,190.7Z" style="fill: rgb(38, 50, 56); transform-origin: 261.475px 190.533px;" id="el63kfxnk2pkr" class="animable"></path><path d="M258.47,193a18.22,18.22,0,0,0,2.72,3.77,2.5,2.5,0,0,1-2.1.58Z" style="fill: rgb(212, 130, 125); transform-origin: 259.83px 195.196px;" id="eloz2ps0wusao" class="animable"></path><path d="M256,199.87a5.72,5.72,0,0,0,1,0,.17.17,0,0,0,.15-.2.2.2,0,0,0-.2-.17,5.18,5.18,0,0,1-4.18-1.62.18.18,0,0,0-.25,0,.17.17,0,0,0,0,.25A5.48,5.48,0,0,0,256,199.87Z" style="fill: rgb(38, 50, 56); transform-origin: 254.809px 198.861px;" id="el63vljg9bj9u" class="animable"></path><path d="M250.87,188.94a.28.28,0,0,0,.25-.11,2.69,2.69,0,0,1,2.36-.9.33.33,0,0,0,.4-.29.38.38,0,0,0-.31-.42,3.3,3.3,0,0,0-3,1.11.37.37,0,0,0,.05.51A.35.35,0,0,0,250.87,188.94Z" style="fill: rgb(38, 50, 56); transform-origin: 252.187px 188.062px;" id="ellgpwwp7ruk" class="animable"></path><path d="M262.07,188.28a.38.38,0,0,0,.25-.08.36.36,0,0,0,0-.51,3.79,3.79,0,0,0-3.08-1.38.33.33,0,0,0-.29.4.39.39,0,0,0,.42.32,3,3,0,0,1,2.43,1.12A.41.41,0,0,0,262.07,188.28Z" style="fill: rgb(38, 50, 56); transform-origin: 260.684px 187.294px;" id="elsxlr8ox45t" class="animable"></path><path d="M253.33,191.14l1.39-.54S254.14,191.82,253.33,191.14Z" style="fill: rgb(38, 50, 56); transform-origin: 254.025px 190.973px;" id="eltingm17p0z" class="animable"></path><path d="M250.49,181.73s-1.43,8.6-7.14,10-1.08-8.84-1.08-8.84,1.2-4.66,8.92-4.66,16.61,7.84,14.14,19.1a12.44,12.44,0,0,0-1.29-6.72C262.33,187.69,260.57,190.24,250.49,181.73Z" style="fill: rgb(38, 50, 56); transform-origin: 253.124px 187.78px;" id="el5ghqnxm656w" class="animable"></path><path d="M240.69,198.08a5.08,5.08,0,0,0,3.1,2.71c1.69.45,2.43-1.49,1.87-3.43-.51-1.75-2-4.1-3.67-3.67S239.83,196.37,240.69,198.08Z" style="fill: rgb(238, 193, 187); transform-origin: 243.059px 197.247px;" id="eldsan5z52cse" class="animable"></path><path d="M242.58,215.13s2.36,27.29-7.34,45.09S221,280.7,221,280.7L217,273s17.94-20.15,18.5-22.78-3.28-27.67-3.28-27.67A48.09,48.09,0,0,1,242.58,215.13Z" style="fill: rgb(38, 50, 56); transform-origin: 229.916px 247.915px;" id="ellxibf6nksx" class="animable"></path><g id="el9y2symtjb2r"><path d="M235.24,260.22C225.55,278,221,280.7,221,280.7L217,273s17.94-20.15,18.5-22.78a40.09,40.09,0,0,0-.46-7.06c-.41-3.66-1-8.12-1.55-11.95-.68-4.83-1.27-8.66-1.27-8.66a48.09,48.09,0,0,1,10.33-7.43S244.94,242.42,235.24,260.22Z" style="fill: rgb(255, 255, 255); opacity: 0.4; transform-origin: 229.905px 247.91px;" class="animable"></path></g><path d="M244.22,213.33s-2.91.36-3.57,1.79-6.73,9-6.73,9l6.36-1.56-3.74,3.32a101.1,101.1,0,0,1,4,19.37s5.67-15.25,2-30.12Z" style="fill: rgb(38, 50, 56); transform-origin: 239.07px 229.29px;" id="ele6pj29szc76" class="animable"></path><g id="elaf2oqlerfph"><path d="M244.22,213.33s-2.91.36-3.57,1.79-6.73,9-6.73,9l6.36-1.56-3.74,3.32a101.1,101.1,0,0,1,4,19.37s5.67-15.25,2-30.12Z" style="fill: rgb(255, 255, 255); opacity: 0.25; transform-origin: 239.07px 229.29px;" class="animable"></path></g><path d="M260.3,211.9s10,3.66,11.41,38.63c0,0,2.25-26.7.47-39.76Z" style="fill: rgb(38, 50, 56); transform-origin: 266.583px 230.65px;" id="elnao9mewpze" class="animable"></path><g id="elwvhnjz1u2lh"><path d="M260.3,211.9s10,3.66,11.41,38.63c0,0,2.25-26.7.47-39.76Z" style="fill: rgb(255, 255, 255); opacity: 0.4; transform-origin: 266.583px 230.65px;" class="animable"></path></g><path d="M256.45,211.32l3.56-.55c1.45-.23,12.69,6.1,12.69,6.1L267.27,218l4,1.44s1.39,13-.36,21.12c0,0-3.23-19.35-9.92-27.18A5.67,5.67,0,0,0,256.45,211.32Z" style="fill: rgb(38, 50, 56); transform-origin: 264.575px 225.662px;" id="elef9ta52109e" class="animable"></path><g id="el6rtqygxlt0o"><path d="M256.45,211.32l3.56-.55c1.45-.23,12.69,6.1,12.69,6.1L267.27,218l4,1.44s1.39,13-.36,21.12c0,0-3.23-19.35-9.92-27.18A5.67,5.67,0,0,0,256.45,211.32Z" style="fill: rgb(255, 255, 255); opacity: 0.25; transform-origin: 264.575px 225.662px;" class="animable"></path></g><path d="M254.4,212.12s3.93,2.74,3.46,5.62l7.89.21S260.6,212.6,254.4,212.12Z" style="fill: rgb(255, 181, 64); transform-origin: 260.075px 215.035px;" id="el3lkrv9b1b69" class="animable"></path><path d="M243.47,222.56l9.39-3.05s-5-4-6.52-6.18l-3.1,2.33h0C243.16,215.84,242.24,218.12,243.47,222.56Z" style="fill: rgb(255, 181, 64); transform-origin: 247.847px 217.945px;" id="elbigvj96wql" class="animable"></path><g id="elurgpbqiwbzl"><path d="M254.4,212.12s3.93,2.74,3.46,5.62l7.89.21S260.6,212.6,254.4,212.12Z" style="fill: rgb(255, 255, 255); opacity: 0.4; transform-origin: 260.075px 215.035px;" class="animable"></path></g><g id="elbfi6ogf6ji"><path d="M243.47,222.56l9.39-3.05s-5-4-6.52-6.18l-3.1,2.33h0C243.16,215.84,242.24,218.12,243.47,222.56Z" style="fill: rgb(255, 255, 255); opacity: 0.4; transform-origin: 247.847px 217.945px;" class="animable"></path></g><path d="M197.73,243.53l-7.13-3.36-.84,7.52s7.19,2.09,8.27,0Z" style="fill: rgb(238, 193, 187); transform-origin: 193.895px 244.394px;" id="elbymmmw2uhnu" class="animable"></path><polygon points="184.13 242.95 184.9 248.33 189.76 247.69 190.6 240.17 184.13 242.95" style="fill: rgb(238, 193, 187); transform-origin: 187.365px 244.25px;" id="elvb1t7nd3od" class="animable"></polygon><path d="M195.81,173.57s-17.95-7.46-34.33,4.31c-9.52,6.83-15.57,22.57-36.87,16.45,0,0,19.4,21.59,32.11,18.89s10.16-9.86,35.9-2.83Z" style="fill: rgb(255, 181, 64); transform-origin: 160.21px 192.346px;" id="elr1dm2nmbsog" class="animable"></path><g id="elb20cn7z0nl"><rect x="186.83" y="171.6" width="2.39" height="243.49" style="fill: rgb(38, 50, 56); transform-origin: 188.025px 293.345px; transform: rotate(3.65deg);" class="animable"></rect></g><path d="M197.4,171.81a1.64,1.64,0,1,1-1.17-2A1.65,1.65,0,0,1,197.4,171.81Z" style="fill: rgb(38, 50, 56); transform-origin: 195.812px 171.396px;" id="ellfig5qnefpg" class="animable"></path><path d="M223.31,197.5h0a.25.25,0,0,1-.24-.26.27.27,0,0,1,.25-.24c.28,0,7,0,9.4-8.12a13.48,13.48,0,0,1,10.43-9.57.25.25,0,0,1,.07.5,13,13,0,0,0-10,9.21C230.67,197.41,223.55,197.5,223.31,197.5Z" style="fill: rgb(38, 50, 56); transform-origin: 233.253px 188.404px;" id="elfgj7g3bwd" class="animable"></path><path d="M263.79,201.11a.25.25,0,0,1-.13-.46c.28-.18,6.73-4.41,1.86-14.24-4.5-9.09-15.38-7.9-15.49-7.89a.25.25,0,0,1-.28-.22A.26.26,0,0,1,250,178c.11,0,11.34-1.24,16,8.17,5.08,10.24-2,14.84-2.05,14.88A.2.2,0,0,1,263.79,201.11Z" style="fill: rgb(38, 50, 56); transform-origin: 258.79px 189.528px;" id="elud3tg8jr5uf" class="animable"></path><g id="eli68kd4b5rqc"><path d="M235.07,243.17c-.41-3.66-1-8.12-1.55-11.95a3.43,3.43,0,0,1,1.3-.95S238,237.71,235.07,243.17Z" style="opacity: 0.2; transform-origin: 234.915px 236.72px;" class="animable"></path></g><path d="M232.25,222.56s-11.77,18.4-14.41,19.69S199,243,199,243L198,249.12s18.47,3.18,23.48,1.41,13.33-13.05,13.33-13.05S236,226.8,232.25,222.56Z" style="fill: rgb(38, 50, 56); transform-origin: 216.495px 236.813px;" id="el4dqcmacghin" class="animable"></path><g id="el350mi993sms"><path d="M232.25,222.56s-11.77,18.4-14.41,19.69S199,243,199,243L198,249.12s18.47,3.18,23.48,1.41,13.33-13.05,13.33-13.05S236,226.8,232.25,222.56Z" style="fill: rgb(255, 255, 255); opacity: 0.4; transform-origin: 216.495px 236.813px;" class="animable"></path></g><polygon points="199.06 249.89 200 242.65 196.93 242.59 195.98 249.35 199.06 249.89" style="fill: rgb(255, 181, 64); transform-origin: 197.99px 246.24px;" id="elmsy75120i" class="animable"></polygon><g id="elufcfdqno1z"><polygon points="199.06 249.89 200 242.65 196.93 242.59 195.98 249.35 199.06 249.89" style="fill: rgb(255, 255, 255); opacity: 0.4; transform-origin: 197.99px 246.24px;" class="animable"></polygon></g></g><defs>     <filter id="active" height="200%">         <feMorphology in="SourceAlpha" result="DILATED" operator="dilate" radius="2"></feMorphology>                <feFlood flood-color="#32DFEC" flood-opacity="1" result="PINK"></feFlood>        <feComposite in="PINK" in2="DILATED" operator="in" result="OUTLINE"></feComposite>        <feMerge>            <feMergeNode in="OUTLINE"></feMergeNode>            <feMergeNode in="SourceGraphic"></feMergeNode>        </feMerge>    </filter>    <filter id="hover" height="200%">        <feMorphology in="SourceAlpha" result="DILATED" operator="dilate" radius="2"></feMorphology>                <feFlood flood-color="#ff0000" flood-opacity="0.5" result="PINK"></feFlood>        <feComposite in="PINK" in2="DILATED" operator="in" result="OUTLINE"></feComposite>        <feMerge>            <feMergeNode in="OUTLINE"></feMergeNode>            <feMergeNode in="SourceGraphic"></feMergeNode>        </feMerge>            <feColorMatrix type="matrix" values="0   0   0   0   0                0   1   0   0   0                0   0   0   0   0                0   0   0   1   0 "></feColorMatrix>    </filter></defs></svg>